<svg version="1.1" id="Layer_1" xmlns="http://www.w3.org/2000/svg" xmlns:xlink="http://www.w3.org/1999/xlink" x="0px" y="0px"
	 width="100%" viewBox="0 0 136 102" enable-background="new 0 0 136 102" xml:space="preserve">
<path fill="#F3F3F2" opacity="1.000000" stroke="none" 
	d="
M137.000000,3.000000 
	C137.000000,36.289890 137.000000,69.579781 137.000000,102.934830 
	C91.769272,102.934830 46.538429,102.934830 1.000000,102.934830 
	C1.000000,69.979744 1.000000,36.958527 1.468657,3.468522 
	C46.958210,2.999820 91.979103,2.999910 137.000000,3.000000 
M26.218628,38.342945 
	C31.449995,51.841492 36.797771,65.296913 41.825962,78.870728 
	C42.995235,82.027237 44.969860,82.091476 47.594124,82.154976 
	C50.365322,82.222031 52.119629,81.715363 53.204006,78.662010 
	C57.379902,66.903656 61.877285,55.259274 66.272858,43.579193 
	C68.408737,37.903656 70.584503,32.243134 72.798988,26.426680 
	C63.037796,25.349707 63.050274,25.354202 60.060764,33.652515 
	C58.538162,37.878971 56.984661,42.094662 55.403641,46.299625 
	C52.965912,52.783157 50.492546,59.253292 47.715633,66.568573 
	C46.783867,64.560356 46.241550,63.550930 45.834480,62.489624 
	C41.543919,51.303364 37.336628,40.084381 32.923244,28.946985 
	C32.360821,27.527685 30.845375,25.643286 29.610424,25.514145 
	C27.264940,25.268877 24.802908,26.138159 21.784687,26.646322 
	C23.268534,30.572334 24.601271,34.098541 26.218628,38.342945 
M96.036774,56.499992 
	C96.036774,46.426407 96.036774,36.352821 96.036774,26.371250 
	C92.274399,26.371250 89.373940,26.371250 86.057777,26.371250 
	C86.057777,41.202045 86.058662,55.653214 86.057434,70.104378 
	C86.056717,78.605362 86.055206,78.605362 78.794449,84.517830 
	C81.205811,86.361183 83.539673,89.602516 85.544342,89.410316 
	C92.117279,88.780144 95.911003,83.701492 96.002670,76.973366 
	C96.091095,70.483284 96.031441,63.991192 96.036774,56.499992 
M119.394302,71.173599 
	C116.260185,69.677376 113.239433,70.156723 111.676651,73.142075 
	C110.788757,74.838196 110.665825,78.055710 111.719208,79.356781 
	C112.970383,80.902138 115.979019,82.019226 118.006851,81.738472 
	C122.524536,81.113007 123.329346,76.273903 119.394302,71.173599 
z"/>
<path fill="#E5E7EB" opacity="1.000000" stroke="none" 
	d="
M137.000000,2.500000 
	C91.979103,2.999910 46.958210,2.999820 1.468657,2.999865 
	C1.500000,2.333333 1.977422,1.109944 2.503593,1.088604 
	C6.497025,0.926647 10.500000,1.000000 14.500000,1.000000 
	C54.000000,1.000000 93.500015,0.990225 132.999939,1.042085 
	C134.333710,1.043836 135.666672,1.666666 137.000000,2.500000 
z"/>
<path fill="#E5AA58" opacity="1.000000" stroke="none" 
	d="
M26.076317,37.983845 
	C24.601271,34.098541 23.268534,30.572334 21.784687,26.646322 
	C24.802908,26.138159 27.264940,25.268877 29.610424,25.514145 
	C30.845375,25.643286 32.360821,27.527685 32.923244,28.946985 
	C37.336628,40.084381 41.543919,51.303364 45.834480,62.489624 
	C46.241550,63.550930 46.783867,64.560356 47.715633,66.568573 
	C50.492546,59.253292 52.965912,52.783157 55.403641,46.299625 
	C56.984661,42.094662 58.538162,37.878971 60.060764,33.652515 
	C63.050274,25.354202 63.037796,25.349707 72.798988,26.426680 
	C70.584503,32.243134 68.408737,37.903656 66.272858,43.579193 
	C61.877285,55.259274 57.379902,66.903656 53.204006,78.662010 
	C52.119629,81.715363 50.365322,82.222031 47.594124,82.154976 
	C44.969860,82.091476 42.995235,82.027237 41.825962,78.870728 
	C36.797771,65.296913 31.449995,51.841492 26.076317,37.983845 
z"/>
<path fill="#E5AB59" opacity="1.000000" stroke="none" 
	d="
M96.036804,56.999989 
	C96.031441,63.991192 96.091095,70.483284 96.002670,76.973366 
	C95.911003,83.701492 92.117279,88.780144 85.544342,89.410316 
	C83.539673,89.602516 81.205811,86.361183 78.794449,84.517830 
	C86.055206,78.605362 86.056717,78.605362 86.057434,70.104378 
	C86.058662,55.653214 86.057777,41.202045 86.057777,26.371250 
	C89.373940,26.371250 92.274399,26.371250 96.036774,26.371250 
	C96.036774,36.352821 96.036774,46.426407 96.036804,56.999989 
z"/>
<path fill="#E5AB59" opacity="1.000000" stroke="none" 
	d="
M119.712784,71.391586 
	C123.329346,76.273903 122.524536,81.113007 118.006851,81.738472 
	C115.979019,82.019226 112.970383,80.902138 111.719208,79.356781 
	C110.665825,78.055710 110.788757,74.838196 111.676651,73.142075 
	C113.239433,70.156723 116.260185,69.677376 119.712784,71.391586 
z"/>
</svg>