<!--?xml version="1.0" standalone="no"?-->
              <svg id="sw-js-blob-svg" viewBox="0 0 100 100" xmlns="http://www.w3.org/2000/svg" version="1.1">
                    <defs> 
                        <linearGradient id="sw-gradient" x1="0" x2="1" y1="1" y2="0">
                            <stop id="stop1" stop-color="rgba(241.223, 248, 55, 1)" offset="0%"></stop>
                            <stop id="stop2" stop-color="rgba(255, 99.818, 0, 1)" offset="100%"></stop>
                        </linearGradient>
                    </defs>
                <path fill="url(#sw-gradient)" d="M19.8,-26.1C23.2,-20.7,21.9,-12.2,21.5,-5.2C21.1,1.8,21.6,7.3,19.6,11.8C17.5,16.2,13,19.7,7.5,22.4C2.1,25.1,-4.3,27.1,-12.1,26.9C-19.9,26.8,-29.1,24.5,-35.4,18.2C-41.7,11.9,-45,1.7,-41.4,-5.3C-37.8,-12.4,-27.4,-16.3,-19.3,-20.8C-11.3,-25.3,-5.6,-30.5,1.3,-32C8.2,-33.5,16.4,-31.4,19.8,-26.1Z" width="100%" height="100%" transform="translate(50 50)" stroke-width="0" style="transition: all 0.3s ease 0s;" stroke="url(#sw-gradient)"></path>
              </svg>